<svg version="1.1" id="Layer_1" xmlns="http://www.w3.org/2000/svg" xmlns:xlink="http://www.w3.org/1999/xlink" x="0px" y="0px"
	 width="100%" viewBox="0 0 512 512" enable-background="new 0 0 512 512" xml:space="preserve">
<path fill="#000000" opacity="1.000000" stroke="none" 
	d="
M321.000000,1.000003 
	C384.974152,1.000000 448.948273,1.000000 512.961182,1.000000 
	C512.961182,171.571854 512.961182,342.143707 512.961182,513.000000 
	C389.644806,513.000000 266.289368,513.000000 142.533112,512.648865 
	C143.719086,511.492523 145.239700,510.500854 146.902802,509.910522 
	C167.417938,502.628662 180.313919,488.360352 186.070297,467.464935 
	C190.039703,453.056122 189.830582,438.611420 186.939606,424.041504 
	C186.574554,422.201721 187.339569,419.181641 188.692627,418.103516 
	C203.725082,406.125671 213.393448,390.517242 220.167526,372.849121 
	C221.668228,368.935028 223.189423,365.028748 224.453598,361.759155 
	C229.732529,369.295776 234.997604,376.812622 240.461746,384.613647 
	C239.238556,385.638458 237.780396,386.940155 236.240997,388.137329 
	C223.047028,398.398193 214.929001,411.040924 215.940079,428.589264 
	C216.700119,441.780518 226.440399,453.372894 239.407257,456.034515 
	C250.201645,458.250153 260.090607,456.538666 269.685730,451.204620 
	C277.078827,447.094666 279.583984,447.337067 284.890533,453.545166 
	C292.484436,462.429291 301.768036,465.797028 313.219818,465.073395 
	C322.321747,464.498291 330.285217,459.715057 333.231934,451.243011 
	C334.453888,447.729828 334.418365,443.770142 334.883820,440.004761 
	C336.071960,430.392670 336.423706,430.015717 345.842957,429.993225 
	C356.623322,429.967499 364.614838,423.318237 368.536499,413.434448 
	C372.087036,404.485931 370.338043,395.996887 363.265625,388.675049 
	C352.603088,377.636597 339.293915,371.516876 324.959778,367.326843 
	C321.216125,366.232483 320.175354,364.894043 320.962646,361.172058 
	C323.330444,349.977722 321.877228,339.039856 318.218445,328.303284 
	C317.395203,325.887543 316.825714,323.385284 315.720490,319.419830 
	C318.584503,321.186371 320.070862,322.123535 321.576477,323.028717 
	C335.457306,331.373566 349.798340,338.570221 365.956329,341.489105 
	C385.616180,345.040527 403.918365,343.188293 419.973785,329.719604 
	C442.641113,310.704285 446.010162,284.298676 428.348206,260.859344 
	C415.230652,243.450867 397.317474,232.583633 377.722260,224.126404 
	C370.972656,221.213272 364.002258,218.811737 356.279144,215.849045 
	C368.265045,211.800781 379.302582,208.072830 390.687469,204.227539 
	C391.320404,206.163849 391.683350,207.590027 392.242737,208.934464 
	C396.016602,218.004135 402.074280,224.833450 411.933685,227.096390 
	C425.247986,230.152328 436.676086,226.957123 444.882416,215.434174 
	C446.738495,212.827957 448.217896,212.210037 451.383484,213.421387 
	C455.045929,214.822876 459.189941,215.954376 463.036011,215.723373 
	C484.232513,214.450226 495.783081,197.519821 488.186859,177.828583 
	C486.769897,174.155502 486.935577,172.641647 490.508423,170.509537 
	C501.816895,163.761093 506.289795,153.137634 504.838409,140.390259 
	C503.610901,129.608917 497.756500,121.395844 487.647430,117.045677 
	C483.988281,115.471069 483.596100,113.732010 484.261658,110.278084 
	C485.731720,102.649086 485.760773,95.049217 481.426971,88.113594 
	C473.277710,75.071899 458.276703,69.724434 443.681915,75.335022 
	C439.824188,76.818016 438.255737,75.842896 436.550629,72.953850 
	C435.790863,71.666573 434.931122,70.436142 434.080017,69.205284 
	C427.417023,59.569206 412.951660,54.714638 401.720062,57.915726 
	C389.993683,61.257832 383.422028,69.295090 379.916992,80.457428 
	C379.058899,83.190201 378.966339,86.263954 374.504456,86.085098 
	C354.797119,85.295143 340.484467,103.101944 346.121857,123.676537 
	C346.883820,126.457451 345.863251,127.556740 343.689117,128.715759 
	C336.794098,132.391434 329.915955,136.107361 323.149902,140.013184 
	C319.123413,142.337524 315.319672,145.047714 311.415771,147.584427 
	C315.913422,139.326309 321.127747,131.906738 326.083130,124.318054 
	C338.034180,106.016182 348.202789,86.854782 353.311096,65.395760 
	C355.827484,54.825024 357.152771,44.170826 354.246277,33.411621 
	C350.061371,17.920088 339.576752,8.644723 324.879852,3.432439 
	C323.475616,2.934431 322.288116,1.825385 321.000000,1.000003 
z"/>
<path fill="#3D342C" opacity="1.000000" stroke="none" 
	d="
M320.531342,1.000003 
	C322.288116,1.825385 323.475616,2.934431 324.879852,3.432439 
	C339.576752,8.644723 350.061371,17.920088 354.246277,33.411621 
	C357.152771,44.170826 355.827484,54.825024 353.311096,65.395760 
	C348.202789,86.854782 338.034180,106.016182 326.083130,124.318054 
	C321.127747,131.906738 315.913422,139.326309 311.415771,147.584427 
	C315.319672,145.047714 319.123413,142.337524 323.149902,140.013184 
	C329.915955,136.107361 336.794098,132.391434 343.689117,128.715759 
	C345.863251,127.556740 346.883820,126.457451 346.121857,123.676537 
	C340.484467,103.101944 354.797119,85.295143 374.504456,86.085098 
	C378.966339,86.263954 379.058899,83.190201 379.916992,80.457428 
	C383.422028,69.295090 389.993683,61.257832 401.720062,57.915726 
	C412.951660,54.714638 427.417023,59.569206 434.080017,69.205284 
	C434.931122,70.436142 435.790863,71.666573 436.550629,72.953850 
	C438.255737,75.842896 439.824188,76.818016 443.681915,75.335022 
	C458.276703,69.724434 473.277710,75.071899 481.426971,88.113594 
	C485.760773,95.049217 485.731720,102.649086 484.261658,110.278084 
	C483.596100,113.732010 483.988281,115.471069 487.647430,117.045677 
	C497.756500,121.395844 503.610901,129.608917 504.838409,140.390259 
	C506.289795,153.137634 501.816895,163.761093 490.508423,170.509537 
	C486.935577,172.641647 486.769897,174.155502 488.186859,177.828583 
	C495.783081,197.519821 484.232513,214.450226 463.036011,215.723373 
	C459.189941,215.954376 455.045929,214.822876 451.383484,213.421387 
	C448.217896,212.210037 446.738495,212.827957 444.882416,215.434174 
	C436.676086,226.957123 425.247986,230.152328 411.933685,227.096390 
	C402.074280,224.833450 396.016602,218.004135 392.242737,208.934464 
	C391.683350,207.590027 391.320404,206.163849 390.687469,204.227539 
	C379.302582,208.072830 368.265045,211.800781 356.279144,215.849045 
	C364.002258,218.811737 370.972656,221.213272 377.722260,224.126404 
	C397.317474,232.583633 415.230652,243.450867 428.348206,260.859344 
	C446.010162,284.298676 442.641113,310.704285 419.973785,329.719604 
	C403.918365,343.188293 385.616180,345.040527 365.956329,341.489105 
	C349.798340,338.570221 335.457306,331.373566 321.576477,323.028717 
	C320.070862,322.123535 318.584503,321.186371 315.720490,319.419830 
	C316.825714,323.385284 317.395203,325.887543 318.218445,328.303284 
	C321.877228,339.039856 323.330444,349.977722 320.962646,361.172058 
	C320.175354,364.894043 321.216125,366.232483 324.959778,367.326843 
	C339.293915,371.516876 352.603088,377.636597 363.265625,388.675049 
	C370.338043,395.996887 372.087036,404.485931 368.536499,413.434448 
	C364.614838,423.318237 356.623322,429.967499 345.842957,429.993225 
	C336.423706,430.015717 336.071960,430.392670 334.883820,440.004761 
	C334.418365,443.770142 334.453888,447.729828 333.231934,451.243011 
	C330.285217,459.715057 322.321747,464.498291 313.219818,465.073395 
	C301.768036,465.797028 292.484436,462.429291 284.890533,453.545166 
	C279.583984,447.337067 277.078827,447.094666 269.685730,451.204620 
	C260.090607,456.538666 250.201645,458.250153 239.407257,456.034515 
	C226.440399,453.372894 216.700119,441.780518 215.940079,428.589264 
	C214.929001,411.040924 223.047028,398.398193 236.240997,388.137329 
	C237.780396,386.940155 239.238556,385.638458 240.461746,384.613647 
	C234.997604,376.812622 229.732529,369.295776 224.453598,361.759155 
	C223.189423,365.028748 221.668228,368.935028 220.167526,372.849121 
	C213.393448,390.517242 203.725082,406.125671 188.692627,418.103516 
	C187.339569,419.181641 186.574554,422.201721 186.939606,424.041504 
	C189.830582,438.611420 190.039703,453.056122 186.070297,467.464935 
	C180.313919,488.360352 167.417938,502.628662 146.902802,509.910522 
	C145.239700,510.500854 143.719086,511.492523 142.066132,512.648865 
	C132.645767,513.000000 123.291542,513.000000 113.411453,512.654663 
	C105.245789,508.252411 98.139687,503.734528 93.416031,496.003723 
	C87.371117,486.110474 77.650703,481.803253 66.559296,481.142456 
	C46.096313,479.923309 30.738283,469.967316 19.042315,453.963379 
	C6.067983,436.210266 4.767213,404.971741 17.981947,387.668701 
	C24.479597,379.160767 25.677540,370.648102 21.229668,360.744110 
	C16.897530,351.097961 18.051516,341.445435 24.515579,332.917694 
	C37.246326,316.122559 54.612114,309.878479 75.047478,312.359497 
	C91.882790,314.403442 106.875488,321.617096 120.648590,331.301270 
	C123.471962,333.286530 124.859848,332.925751 126.514496,330.091034 
	C129.276291,325.359589 132.208649,320.714752 135.304382,316.194489 
	C139.095657,310.658630 143.129013,305.288605 147.984985,298.562469 
	C143.925705,299.891541 141.332016,300.824951 138.690063,301.592255 
	C120.562317,306.856873 102.399567,309.639648 83.895363,303.111847 
	C62.727901,295.644440 49.309849,269.642212 63.470238,247.383530 
	C70.332115,236.597336 80.712662,230.094879 92.172485,225.127335 
	C95.411995,223.723068 98.732704,222.506119 103.267357,220.706772 
	C98.620674,219.114426 95.335403,218.020508 92.071915,216.865036 
	C70.927505,209.378632 50.537750,200.582565 35.022209,183.489227 
	C23.494213,170.788956 20.317385,154.408188 27.631569,139.208374 
	C30.775229,132.675446 35.853455,127.073425 40.204811,120.830315 
	C39.327557,120.241219 37.489346,119.138855 35.794552,117.848183 
	C19.806307,105.672134 17.628500,81.211441 39.119572,71.075500 
	C43.849377,68.844765 49.093567,67.704674 54.471943,65.940643 
	C53.841671,63.049053 52.957169,60.024960 52.546940,56.937843 
	C50.234165,39.533287 53.323761,24.687967 72.364822,17.035631 
	C85.378807,11.805492 98.603027,11.394928 109.580643,21.948622 
	C113.984825,26.182732 117.061111,31.798080 120.915405,37.019955 
	C121.264099,36.776150 122.178513,36.349483 122.809891,35.662640 
	C129.596741,28.279690 138.359314,26.916864 147.544846,28.297184 
	C157.011383,29.719725 161.348785,37.141285 165.020309,45.037144 
	C165.584930,46.251415 167.036713,47.710976 168.236237,47.870754 
	C180.636536,49.522511 189.540558,56.593269 196.967972,66.004044 
	C210.103043,82.646629 217.398178,102.011749 223.016815,122.151901 
	C224.030426,125.785248 225.157150,129.387054 226.441971,133.711212 
	C227.352982,126.866539 228.155319,120.958717 228.923462,115.046455 
	C232.375854,88.474319 238.993744,62.841995 251.982315,39.195484 
	C259.103607,26.230690 267.990387,14.750785 281.169861,7.254858 
	C284.793549,5.193874 288.390686,3.086234 292.000000,1.000000 
	C301.354218,1.000000 310.708466,1.000000 320.531342,1.000003 
M155.720856,157.020248 
	C156.081757,157.137070 156.442642,157.253876 156.803543,157.370682 
	C156.618896,156.836960 156.434250,156.303223 156.043869,155.113022 
	C145.705002,139.733932 136.319061,123.842621 131.522064,105.752731 
	C125.812675,84.222153 126.382927,60.899830 156.381638,49.182526 
	C154.140610,38.470760 145.572647,33.708820 135.497498,37.575459 
	C126.847328,40.895218 122.527878,47.422024 122.681068,56.527435 
	C122.880096,68.357025 119.946136,79.551231 115.106743,90.436264 
	C121.809288,95.831833 125.213753,102.541023 124.030037,111.073982 
	C122.866295,119.462944 117.409950,124.652725 110.851830,127.760674 
	C125.822601,137.448181 140.602097,147.011932 155.720856,157.020248 
M267.357483,138.927643 
	C263.232086,150.321762 258.634735,161.572723 255.122513,173.152832 
	C252.005936,183.428558 252.537842,183.589890 262.529480,188.404007 
	C263.117249,187.936676 263.828156,187.494476 264.388367,186.908279 
	C286.298462,163.982025 306.654419,139.810623 323.218750,112.660820 
	C334.020569,94.956085 343.231598,76.561287 346.583496,55.772186 
	C349.505737,37.647831 344.033112,23.698105 330.815186,15.730399 
	C314.098236,5.653503 294.093475,6.969732 279.008942,19.262991 
	C267.480652,28.658075 259.990295,41.016464 254.131454,54.397430 
	C239.870560,86.967743 235.253754,121.487015 234.045227,156.634613 
	C233.778183,164.400848 234.006088,172.184097 234.006088,180.108566 
	C237.877258,180.455902 241.152359,180.749756 244.686188,181.066818 
	C245.167587,179.200821 245.639542,177.640915 245.969482,176.051498 
	C250.001587,156.627899 257.322601,138.525772 267.708496,121.638275 
	C269.301636,119.047859 271.071381,116.571259 274.381470,118.647987 
	C277.369324,120.522560 276.234741,123.175255 274.811615,125.657890 
	C272.412445,129.843262 270.092102,134.073822 267.357483,138.927643 
M329.536530,264.918610 
	C314.948029,255.797043 299.136108,249.940735 282.126282,247.442780 
	C280.486725,247.202011 277.975616,247.698135 277.034943,248.825241 
	C273.551971,252.998245 270.557800,257.579193 267.167969,262.302277 
	C267.747925,263.060883 268.500061,264.135620 269.342987,265.133667 
	C281.952332,280.063934 295.670227,293.859985 311.320923,305.624420 
	C328.774841,318.744232 347.424103,329.429901 369.238800,333.557404 
	C392.233429,337.908234 412.985962,329.772278 424.719421,311.708832 
	C432.005219,300.492493 433.005829,288.796051 427.384216,276.583038 
	C423.269257,267.643280 417.127411,260.267944 409.804138,253.833054 
	C392.936920,239.011948 372.909821,230.392120 351.693024,223.914185 
	C341.604004,220.833786 331.716125,219.353516 321.428375,222.628738 
	C318.763184,223.477234 315.868622,223.629211 313.068817,224.026550 
	C302.915283,225.467529 292.757202,226.876801 282.588959,228.299698 
	C282.090973,232.007385 281.656097,235.245041 281.282684,238.025192 
	C291.770782,241.086014 302.222260,243.356720 312.040497,247.231873 
	C320.946442,250.746948 329.272217,255.822388 337.577698,260.681702 
	C339.003204,261.515747 339.046509,264.712158 339.728333,266.817291 
	C337.653931,267.035706 335.552917,267.545898 333.515381,267.360168 
	C332.342957,267.253326 331.273224,266.019958 329.536530,264.918610 
M188.072922,324.630127 
	C186.845627,329.292511 185.916687,334.067688 184.221176,338.553070 
	C183.664932,340.024536 181.119873,340.744263 179.484314,341.807770 
	C178.533066,340.105743 177.344070,338.484467 176.727386,336.668854 
	C176.402084,335.711060 177.032211,334.403961 177.303513,333.272003 
	C182.803421,310.324799 192.449631,289.296661 206.464249,270.289612 
	C207.521332,268.855988 208.501328,267.365509 209.599747,265.782410 
	C206.484100,263.176392 203.730743,260.873413 200.843140,258.458130 
	C184.321716,272.385132 169.178177,287.090759 155.617920,303.384766 
	C141.810120,319.976227 129.608582,337.574371 122.475929,358.195740 
	C118.946625,368.399353 117.055794,378.895935 119.464386,389.614441 
	C125.941109,418.436584 160.560501,429.695892 183.955978,410.574493 
	C201.587433,396.164062 210.700119,376.548920 216.920074,355.281586 
	C219.268082,347.253235 220.192474,339.227356 219.448395,330.696716 
	C218.733856,322.504730 219.351120,313.998749 220.756638,305.868164 
	C222.644196,294.949127 225.850998,284.258179 228.571152,273.143829 
	C226.714371,272.628448 224.197662,272.273193 221.997437,271.242401 
	C218.272552,269.497345 216.177185,270.650085 213.824890,273.851379 
	C202.581192,289.153076 194.029404,305.774384 188.072922,324.630127 
M52.194386,469.436920 
	C56.712570,470.488403 61.198380,472.256256 65.754776,472.462189 
	C81.862595,473.190247 93.937843,480.377197 102.651985,493.762970 
	C106.501457,499.676147 112.257126,502.915436 119.120186,504.044281 
	C134.504242,506.574677 148.422821,502.508209 160.225266,492.827393 
	C176.984406,479.080994 181.168427,460.220703 179.866791,439.349701 
	C170.437119,464.203827 152.169113,473.629669 126.322975,470.429443 
	C127.040688,475.241943 128.067551,479.642334 128.186920,484.067200 
	C128.239731,486.024506 126.904129,489.204315 125.411758,489.776520 
	C122.106773,491.043823 120.819458,488.153992 120.339592,485.313080 
	C119.480423,480.226685 118.897903,475.088013 117.867538,470.039032 
	C117.501762,468.246613 116.540611,466.237732 115.209763,465.041168 
	C110.497749,460.804718 108.495369,455.670929 108.970688,449.441681 
	C109.100037,447.746460 109.128723,446.043518 109.223396,443.894989 
	C98.582779,447.562408 89.229156,446.528351 80.350822,440.756012 
	C79.224953,440.024017 76.895592,440.240326 75.553856,440.896576 
	C69.128532,444.038971 62.951763,447.705078 56.448807,450.661957 
	C54.877888,451.376251 51.503197,450.811768 50.537060,449.588379 
	C48.725758,447.294586 50.105427,444.916412 52.787045,443.592529 
	C54.129250,442.929901 55.431652,442.186768 56.753845,441.483368 
	C62.106972,438.635376 67.460800,435.788666 72.872276,432.910675 
	C68.582634,425.269684 66.215157,417.664795 69.192101,410.178558 
	C72.196426,402.623505 74.130714,395.716339 70.160149,387.985718 
	C69.202042,386.120270 70.208344,383.341003 69.778900,381.083191 
	C69.315338,378.646027 68.764198,375.911407 67.310188,374.036255 
	C63.131477,368.647247 58.386738,363.700653 54.076099,358.407806 
	C53.039013,357.134430 52.129585,355.082428 52.369190,353.581329 
	C52.903778,350.232147 57.068054,349.757935 59.777386,352.749908 
	C64.055435,357.474304 68.146820,362.367676 72.524971,367.429749 
	C81.374382,348.578430 75.776047,331.891510 58.132389,322.903687 
	C57.029320,322.341827 55.487160,321.841217 54.404316,322.164978 
	C44.338375,325.175049 36.131668,330.890503 30.291279,339.703400 
	C25.577579,346.816162 27.449619,353.882111 30.474953,361.089874 
	C34.810703,371.419769 33.511951,381.037964 26.845207,390.308685 
	C23.513882,394.941223 20.666130,400.318207 19.144762,405.788177 
	C11.846864,432.027283 25.125685,457.627716 52.194386,469.436920 
M408.186859,119.121185 
	C412.965149,122.064079 417.906281,124.780205 422.452789,128.045792 
	C424.715973,129.671341 426.072235,129.927536 427.789703,127.692558 
	C429.717133,125.184341 431.794006,122.791588 433.770966,120.320663 
	C435.630493,117.996429 437.733612,115.617500 440.804626,117.957542 
	C443.935608,120.343323 442.125641,122.943077 440.239960,125.270073 
	C437.723267,128.375778 435.054352,131.378204 432.792572,134.660477 
	C431.899109,135.956985 431.924805,137.886932 431.532013,139.528458 
	C433.039551,139.870148 434.576630,140.595291 436.049072,140.481796 
	C440.524384,140.136780 444.976593,139.091476 449.433807,139.113800 
	C451.169373,139.122498 452.894257,141.252960 454.624023,142.416946 
	C453.115784,143.901581 451.851868,146.024521 450.040741,146.717896 
	C447.467346,147.703079 444.410645,147.349319 441.712250,148.107773 
	C439.417053,148.752853 436.170776,149.643906 435.414673,151.345627 
	C434.030151,154.461624 436.386993,156.782379 439.428009,158.273697 
	C442.561676,159.810455 445.576050,161.618164 448.529846,163.485672 
	C451.203979,165.176376 455.600769,166.493713 453.267120,170.765533 
	C450.918427,175.064774 447.503906,172.151978 444.663147,170.638306 
	C441.359131,168.877762 438.133423,166.970306 436.190582,165.871429 
	C429.673828,173.422607 424.296295,180.585175 417.924744,186.714417 
	C413.560883,190.912323 407.921936,193.854340 402.639496,196.999222 
	C399.877258,198.643738 398.969116,200.385101 399.813446,203.491058 
	C401.845337,210.965408 406.253540,216.202118 413.642761,218.674179 
	C423.764832,222.060455 434.553406,217.396561 439.259064,207.730545 
	C443.277924,199.475281 443.245422,199.537674 451.650085,203.915543 
	C453.840179,205.056351 456.237427,206.029922 458.650757,206.469055 
	C466.186340,207.840179 473.040924,206.198135 478.137390,200.225266 
	C483.103180,194.405563 482.969299,187.665085 480.140747,180.942001 
	C479.125488,178.528854 477.491730,176.355118 475.999512,174.168106 
	C473.387543,170.339890 473.944824,168.134521 478.145142,166.441330 
	C479.223083,166.006775 480.374634,165.758240 481.467590,165.356827 
	C490.706085,161.963837 497.226227,152.619080 496.764984,143.458496 
	C496.286560,133.955139 488.809631,125.461014 478.882538,123.143166 
	C470.864105,121.270966 470.515015,120.478340 474.325714,112.796638 
	C481.590607,98.151772 471.258850,81.349312 454.959412,82.192581 
	C450.171814,82.440262 445.136658,84.941017 440.926849,87.555519 
	C435.529205,90.907745 433.578033,90.633713 431.885498,84.341774 
	C431.712585,83.698936 431.532928,83.057243 431.332611,82.422523 
	C427.706970,70.935089 417.134857,64.225250 405.474396,66.007187 
	C395.604431,67.515511 388.087219,77.056152 387.818268,88.415939 
	C387.645294,95.721291 386.720581,96.476471 379.533905,95.181358 
	C364.516571,92.475075 352.700348,102.042557 353.577820,116.197731 
	C354.039215,123.641083 354.870300,124.173958 361.857880,121.914040 
	C376.785370,117.086197 391.845581,114.034729 408.186859,119.121185 
M75.240303,125.069939 
	C73.258209,124.807320 71.281433,124.492302 69.293182,124.290276 
	C51.276482,122.459564 37.802017,131.517197 33.520046,148.347702 
	C30.528883,160.104599 34.226376,170.019104 42.113914,178.669769 
	C52.464386,190.021667 65.666763,197.087585 79.565620,202.927612 
	C107.884224,214.826492 137.682327,220.936661 167.973404,224.977951 
	C174.803452,225.889175 181.668808,226.535812 187.884750,227.233215 
	C191.351196,220.116135 187.949936,217.170914 182.859650,214.334900 
	C165.334564,204.570969 147.135803,196.481018 127.877609,190.805649 
	C125.234703,190.026810 122.408798,188.894547 123.338272,185.418549 
	C124.327148,181.720383 127.274666,181.907242 130.219391,183.004059 
	C141.441360,187.184006 152.829880,190.980362 163.816803,195.708618 
	C173.378540,199.823532 182.482712,205.001709 192.048584,209.841309 
	C193.316010,207.306732 194.553711,204.831558 195.833405,202.272430 
	C195.143021,201.499481 194.667587,200.804794 194.043045,200.291565 
	C175.395844,184.968155 157.289383,168.912292 137.914444,154.570328 
	C119.399193,140.864761 99.080475,129.968063 75.240303,125.069939 
M394.353912,124.626068 
	C380.535431,123.921844 367.625092,127.673950 355.191559,133.111862 
	C322.538147,147.393188 295.054871,169.048187 269.729401,193.704941 
	C269.536499,193.892761 269.556519,194.299286 269.502472,194.506500 
	C271.861359,197.595657 274.177551,200.628860 276.639435,203.852890 
	C278.967285,202.224609 281.142670,200.367508 283.603088,199.038025 
	C296.743896,191.937408 309.947174,184.952133 323.150818,177.968521 
	C325.697540,176.621521 328.165314,176.766342 329.462036,179.655533 
	C330.809814,182.658524 328.903473,184.292038 326.353546,185.388290 
	C325.284393,185.847916 324.164154,186.213821 323.150024,186.772675 
	C310.503052,193.741592 297.724518,200.489639 285.295166,207.828522 
	C278.701263,211.721878 278.967590,212.237762 282.839264,220.082840 
	C294.365631,218.390518 306.078491,216.928406 317.695343,214.912643 
	C343.490021,210.436707 368.829041,204.254196 392.632996,192.973984 
	C403.068787,188.028687 412.932770,182.147919 420.471130,173.123093 
	C428.595795,163.396332 429.458862,152.561844 423.018280,141.665985 
	C416.793030,131.134430 407.533508,125.470131 394.353912,124.626068 
M228.027603,310.647034 
	C225.848267,328.874084 227.430756,346.568329 235.984970,363.128632 
	C245.652939,381.845154 261.037750,389.409210 281.816528,385.948212 
	C298.264771,383.208496 310.085663,373.155701 312.787567,359.453949 
	C314.500061,350.769531 313.604279,342.175537 311.023529,333.807037 
	C307.533966,322.491699 303.386597,311.430145 294.904083,302.705566 
	C284.353394,291.853821 273.688080,281.113556 263.085022,270.312653 
	C261.960114,269.166779 260.920563,267.937073 260.137665,267.073151 
	C254.133713,268.130371 253.646088,271.625916 254.171371,276.366791 
	C256.837433,300.429108 264.380219,322.722717 277.590515,343.054688 
	C279.187805,345.513031 280.950043,348.313232 277.734192,350.465179 
	C274.290771,352.769409 272.140106,350.167023 270.701630,347.322998 
	C265.384399,336.810211 259.017761,326.641510 255.215790,315.596405 
	C250.493164,301.876770 247.924561,287.415619 244.295853,272.750366 
	C240.427002,271.919098 237.364731,273.845886 236.088608,278.914459 
	C233.495773,289.212799 230.776215,299.479248 228.027603,310.647034 
M137.664612,96.668449 
	C139.019852,101.630386 140.012985,106.726418 141.792450,111.531235 
	C149.875153,133.355621 162.941818,152.191727 177.731033,169.882431 
	C185.064987,178.655212 192.941589,186.974319 200.548843,195.472046 
	C210.198547,187.412064 209.456970,190.884140 205.927887,180.286362 
	C201.221375,166.152802 194.296539,153.099304 185.684799,140.944778 
	C183.949417,138.495468 182.366989,135.761169 185.580139,133.590866 
	C188.750229,131.449661 190.691437,133.895859 192.424652,136.361588 
	C201.667053,149.509918 208.947159,163.649185 214.087814,178.884674 
	C214.707520,180.721252 215.417664,182.527283 216.132919,184.475540 
	C219.439529,183.359238 222.229904,182.417221 225.061188,181.461395 
	C225.114365,180.566330 225.251755,179.908325 225.176971,179.275406 
	C221.630493,149.259949 215.740234,119.821449 203.027222,92.154816 
	C197.853409,80.895325 191.619339,70.259285 181.539520,62.549980 
	C171.683167,55.011604 160.751358,54.612682 150.406387,61.193970 
	C137.399353,69.468811 135.521576,81.931160 137.664612,96.668449 
M297.503418,416.661743 
	C295.874237,415.359833 293.679993,414.380829 292.718109,412.697601 
	C289.356079,406.814331 286.419617,400.687897 283.066345,394.156891 
	C280.173981,394.383636 276.517151,395.133820 272.951111,394.827301 
	C268.901001,394.479156 266.913879,396.235962 265.246918,399.532013 
	C261.353302,407.230774 259.060364,415.261688 258.737366,423.933289 
	C258.669556,425.752930 257.217468,427.724091 255.911789,429.186584 
	C255.441986,429.712830 252.906631,429.388336 252.403915,428.679321 
	C251.441635,427.322052 250.842728,425.416351 250.822327,423.729431 
	C250.692413,412.992554 254.032852,403.124847 259.480682,392.855774 
	C255.261993,392.005371 250.493164,389.412872 248.013321,390.828949 
	C237.747772,396.690826 229.222549,404.748077 225.571564,416.559326 
	C220.098907,434.263733 230.491669,448.738220 248.899643,448.044067 
	C255.057068,447.811920 261.322784,444.922607 267.135620,442.340057 
	C276.527496,438.167419 284.110596,439.347260 290.929230,447.050964 
	C292.253387,448.546967 293.438904,450.216858 294.960510,451.478180 
	C302.042633,457.348999 310.074799,458.015900 318.440765,455.025421 
	C325.999084,452.323578 325.859619,445.645599 326.005249,439.204803 
	C326.279755,427.063843 331.275574,422.060883 343.286530,421.290710 
	C346.520569,421.083282 350.101318,420.666382 352.824585,419.117676 
	C362.750275,413.472900 364.323395,402.654083 356.539246,394.365540 
	C347.472656,384.711487 335.679382,379.718445 323.330750,375.847626 
	C315.813995,373.491394 315.801910,373.529938 310.536896,381.391998 
	C315.662720,383.615265 320.522858,385.976532 325.573608,387.813812 
	C328.357239,388.826385 330.831268,389.770813 330.003448,393.186218 
	C329.141174,396.743927 326.015778,396.718048 323.522949,395.682373 
	C317.726776,393.274261 312.160217,390.319000 306.434021,387.732910 
	C305.125305,387.141876 303.308014,386.535828 302.138580,386.993652 
	C298.775360,388.310394 295.623901,390.168030 291.280151,392.377197 
	C294.251801,398.071808 296.969421,403.684784 300.071747,409.076385 
	C302.007843,412.441223 302.403076,414.958099 297.503418,416.661743 
M130.913666,262.483734 
	C130.448059,262.662842 129.984741,262.848145 129.516510,263.020050 
	C126.639206,264.076416 123.385857,265.467072 122.002876,261.359283 
	C120.645790,257.328461 124.076752,256.213348 126.935989,255.300278 
	C136.908051,252.115829 146.808395,248.603363 156.952545,246.089325 
	C167.895645,243.377274 179.082077,241.647141 190.212006,239.478989 
	C190.833633,235.681702 188.211136,235.464676 185.400177,235.090820 
	C171.056534,233.183044 156.726822,231.170349 142.393158,229.187653 
	C133.583588,227.969101 125.101601,224.775070 115.813896,226.950531 
	C100.848045,230.455994 86.597939,235.175903 75.492844,246.382294 
	C62.830799,259.159790 62.952717,276.017548 75.610390,288.043030 
	C81.119034,293.276550 87.941902,295.802643 95.310440,296.965515 
	C114.391769,299.976868 132.178329,295.224792 149.842239,288.480896 
	C169.255859,281.069000 180.006699,263.301331 195.823563,252.245285 
	C195.068115,247.934494 192.670059,247.867447 189.732285,248.231094 
	C169.840576,250.693359 150.448944,255.197769 130.913666,262.483734 
M234.574524,265.117920 
	C260.095398,264.897461 278.438965,243.462021 273.590424,219.525726 
	C269.534607,199.503036 251.383392,186.718704 230.244949,188.996445 
	C211.586594,191.006943 196.538940,208.628052 197.044098,227.875320 
	C197.568634,247.860916 213.360138,263.918274 234.574524,265.117920 
M125.433121,461.355255 
	C138.535187,464.932861 150.715424,463.126373 160.942429,453.940491 
	C168.984894,446.716736 172.081146,436.841217 174.446320,425.881958 
	C172.105392,426.457031 170.983551,426.722229 169.867096,427.008423 
	C141.045441,434.396851 111.865578,412.740143 110.654030,383.012909 
	C110.126282,370.063751 113.608986,357.946106 118.852295,346.298584 
	C120.280983,343.124847 119.932640,341.368103 116.988724,339.325317 
	C106.221977,331.854218 94.834000,325.768555 82.041199,322.632141 
	C78.553528,321.777100 74.945923,321.411224 71.393349,320.820892 
	C71.207840,321.307434 71.022331,321.793976 70.836823,322.280518 
	C71.761650,322.987610 72.777130,323.603149 73.597572,324.415649 
	C84.293457,335.007568 87.411865,347.580719 83.259956,361.985138 
	C81.785355,367.101044 79.953827,372.122009 78.660019,377.280334 
	C76.110466,387.445251 79.372482,395.379120 88.297058,400.748810 
	C92.713463,403.406006 97.427666,405.562866 101.919754,408.100739 
	C111.919189,413.750000 117.779335,422.284973 118.530815,433.787567 
	C118.819511,438.206573 117.998810,442.734711 117.371033,447.168854 
	C116.291573,454.793365 117.686760,457.642548 125.433121,461.355255 
M63.033005,35.780334 
	C62.305767,38.153538 61.292912,40.480171 60.897121,42.907425 
	C58.093479,60.101295 70.400749,83.659248 87.484749,93.890930 
	C92.341591,89.205956 98.048401,86.621574 105.000710,86.945297 
	C106.124771,86.997635 107.948479,86.031281 108.369980,85.065140 
	C114.762833,70.412071 117.109253,55.376278 111.338715,39.960205 
	C107.719124,30.290434 101.422035,23.105907 90.430870,22.456726 
	C79.347435,21.802097 69.730881,25.206774 63.033005,35.780334 
M32.224564,91.160103 
	C31.457409,102.580986 38.839310,112.704391 50.523464,115.726196 
	C53.492054,116.493942 56.734516,116.200218 59.850769,116.399956 
	C68.065781,116.926498 76.280579,117.456207 83.340958,117.910385 
	C83.148346,113.480530 83.032768,108.467194 82.642418,103.475349 
	C82.542961,102.203407 81.824898,100.775337 80.960785,99.800346 
	C74.597473,92.620651 68.152733,85.512177 61.655823,78.452881 
	C60.722996,77.439301 59.466652,76.323563 58.200935,76.079224 
	C47.633278,74.039215 36.455173,80.324692 32.224564,91.160103 
M109.769753,433.842712 
	C110.108261,425.623932 105.747208,420.017609 99.221107,416.022430 
	C93.046272,412.242310 86.530884,409.018433 80.183266,405.559723 
	C74.516937,413.222137 75.123863,423.460571 81.593315,430.795502 
	C88.650871,438.797211 99.186813,440.163879 109.769753,433.842712 
M100.255676,120.591316 
	C111.339706,121.786026 119.030380,113.015373 115.285835,103.450531 
	C113.140396,97.970383 107.482521,94.492302 101.828476,95.177849 
	C95.809387,95.907669 91.072212,100.582108 90.263474,106.589722 
	C89.475571,112.442543 92.917427,117.548920 100.255676,120.591316 
z"/>
<path fill="#000000" opacity="1.000000" stroke="none" 
	d="
M291.531342,1.000000 
	C288.390686,3.086234 284.793549,5.193874 281.169861,7.254858 
	C267.990387,14.750785 259.103607,26.230690 251.982315,39.195484 
	C238.993744,62.841995 232.375854,88.474319 228.923462,115.046455 
	C228.155319,120.958717 227.352982,126.866539 226.441971,133.711212 
	C225.157150,129.387054 224.030426,125.785248 223.016815,122.151901 
	C217.398178,102.011749 210.103043,82.646629 196.967972,66.004044 
	C189.540558,56.593269 180.636536,49.522511 168.236237,47.870754 
	C167.036713,47.710976 165.584930,46.251415 165.020309,45.037144 
	C161.348785,37.141285 157.011383,29.719725 147.544846,28.297184 
	C138.359314,26.916864 129.596741,28.279690 122.809891,35.662640 
	C122.178513,36.349483 121.264099,36.776150 120.915405,37.019955 
	C117.061111,31.798080 113.984825,26.182732 109.580643,21.948622 
	C98.603027,11.394928 85.378807,11.805492 72.364822,17.035631 
	C53.323761,24.687967 50.234165,39.533287 52.546940,56.937843 
	C52.957169,60.024960 53.841671,63.049053 54.471943,65.940643 
	C49.093567,67.704674 43.849377,68.844765 39.119572,71.075500 
	C17.628500,81.211441 19.806307,105.672134 35.794552,117.848183 
	C37.489346,119.138855 39.327557,120.241219 40.204811,120.830315 
	C35.853455,127.073425 30.775229,132.675446 27.631569,139.208374 
	C20.317385,154.408188 23.494213,170.788956 35.022209,183.489227 
	C50.537750,200.582565 70.927505,209.378632 92.071915,216.865036 
	C95.335403,218.020508 98.620674,219.114426 103.267357,220.706772 
	C98.732704,222.506119 95.411995,223.723068 92.172485,225.127335 
	C80.712662,230.094879 70.332115,236.597336 63.470238,247.383530 
	C49.309849,269.642212 62.727901,295.644440 83.895363,303.111847 
	C102.399567,309.639648 120.562317,306.856873 138.690063,301.592255 
	C141.332016,300.824951 143.925705,299.891541 147.984985,298.562469 
	C143.129013,305.288605 139.095657,310.658630 135.304382,316.194489 
	C132.208649,320.714752 129.276291,325.359589 126.514496,330.091034 
	C124.859848,332.925751 123.471962,333.286530 120.648590,331.301270 
	C106.875488,321.617096 91.882790,314.403442 75.047478,312.359497 
	C54.612114,309.878479 37.246326,316.122559 24.515579,332.917694 
	C18.051516,341.445435 16.897530,351.097961 21.229668,360.744110 
	C25.677540,370.648102 24.479597,379.160767 17.981947,387.668701 
	C4.767213,404.971741 6.067983,436.210266 19.042315,453.963379 
	C30.738283,469.967316 46.096313,479.923309 66.559296,481.142456 
	C77.650703,481.803253 87.371117,486.110474 93.416031,496.003723 
	C98.139687,503.734528 105.245789,508.252411 112.942795,512.654663 
	C75.684517,513.000000 38.369034,513.000000 1.026776,513.000000 
	C1.026776,342.432800 1.026776,171.865585 1.026776,1.000000 
	C97.687355,1.000000 194.375015,1.000000 291.531342,1.000000 
z"/>
<path fill="#EE9C26" opacity="1.000000" stroke="none" 
	d="
M267.548035,138.606506 
	C270.092102,134.073822 272.412445,129.843262 274.811615,125.657890 
	C276.234741,123.175255 277.369324,120.522560 274.381470,118.647987 
	C271.071381,116.571259 269.301636,119.047859 267.708496,121.638275 
	C257.322601,138.525772 250.001587,156.627899 245.969482,176.051498 
	C245.639542,177.640915 245.167587,179.200821 244.686188,181.066818 
	C241.152359,180.749756 237.877258,180.455902 234.006088,180.108566 
	C234.006088,172.184097 233.778183,164.400848 234.045227,156.634613 
	C235.253754,121.487015 239.870560,86.967743 254.131454,54.397430 
	C259.990295,41.016464 267.480652,28.658075 279.008942,19.262991 
	C294.093475,6.969732 314.098236,5.653503 330.815186,15.730399 
	C344.033112,23.698105 349.505737,37.647831 346.583496,55.772186 
	C343.231598,76.561287 334.020569,94.956085 323.218750,112.660820 
	C306.654419,139.810623 286.298462,163.982025 264.388367,186.908279 
	C263.828156,187.494476 263.117249,187.936676 262.529480,188.404007 
	C252.537842,183.589890 252.005936,183.428558 255.122513,173.152832 
	C258.634735,161.572723 263.232086,150.321762 267.548035,138.606506 
z"/>
<path fill="#EE9C26" opacity="1.000000" stroke="none" 
	d="
M329.846924,265.106140 
	C331.273224,266.019958 332.342957,267.253326 333.515381,267.360168 
	C335.552917,267.545898 337.653931,267.035706 339.728333,266.817261 
	C339.046509,264.712158 339.003204,261.515747 337.577698,260.681702 
	C329.272217,255.822388 320.946442,250.746948 312.040497,247.231873 
	C302.222260,243.356720 291.770782,241.086014 281.282684,238.025192 
	C281.656097,235.245041 282.090973,232.007385 282.588959,228.299698 
	C292.757202,226.876801 302.915283,225.467529 313.068817,224.026550 
	C315.868622,223.629211 318.763184,223.477234 321.428375,222.628738 
	C331.716125,219.353516 341.604004,220.833786 351.693024,223.914185 
	C372.909821,230.392120 392.936920,239.011948 409.804138,253.833054 
	C417.127411,260.267944 423.269257,267.643280 427.384216,276.583038 
	C433.005829,288.796051 432.005219,300.492493 424.719421,311.708832 
	C412.985962,329.772278 392.233429,337.908234 369.238800,333.557404 
	C347.424103,329.429901 328.774841,318.744232 311.320923,305.624420 
	C295.670227,293.859985 281.952332,280.063934 269.342987,265.133667 
	C268.500061,264.135620 267.747925,263.060883 267.167969,262.302277 
	C270.557800,257.579193 273.551971,252.998245 277.034943,248.825241 
	C277.975616,247.698135 280.486725,247.202011 282.126282,247.442780 
	C299.136108,249.940735 314.948029,255.797043 329.846924,265.106140 
z"/>
<path fill="#EE9C26" opacity="1.000000" stroke="none" 
	d="
M188.178741,324.243683 
	C194.029404,305.774384 202.581192,289.153076 213.824890,273.851379 
	C216.177185,270.650085 218.272552,269.497345 221.997437,271.242401 
	C224.197662,272.273193 226.714371,272.628448 228.571152,273.143829 
	C225.850998,284.258179 222.644196,294.949127 220.756638,305.868164 
	C219.351120,313.998749 218.733856,322.504730 219.448395,330.696716 
	C220.192474,339.227356 219.268082,347.253235 216.920074,355.281586 
	C210.700119,376.548920 201.587433,396.164062 183.955978,410.574493 
	C160.560501,429.695892 125.941109,418.436584 119.464386,389.614441 
	C117.055794,378.895935 118.946625,368.399353 122.475929,358.195740 
	C129.608582,337.574371 141.810120,319.976227 155.617920,303.384766 
	C169.178177,287.090759 184.321716,272.385132 200.843140,258.458130 
	C203.730743,260.873413 206.484100,263.176392 209.599747,265.782410 
	C208.501328,267.365509 207.521332,268.855988 206.464249,270.289612 
	C192.449631,289.296661 182.803421,310.324799 177.303513,333.272003 
	C177.032211,334.403961 176.402084,335.711060 176.727386,336.668854 
	C177.344070,338.484467 178.533066,340.105743 179.484314,341.807770 
	C181.119873,340.744263 183.664932,340.024536 184.221176,338.553070 
	C185.916687,334.067688 186.845627,329.292511 188.178741,324.243683 
z"/>
<path fill="#85C9CD" opacity="1.000000" stroke="none" 
	d="
M51.835258,469.288574 
	C25.125685,457.627716 11.846864,432.027283 19.144762,405.788177 
	C20.666130,400.318207 23.513882,394.941223 26.845207,390.308685 
	C33.511951,381.037964 34.810703,371.419769 30.474953,361.089874 
	C27.449619,353.882111 25.577579,346.816162 30.291279,339.703400 
	C36.131668,330.890503 44.338375,325.175049 54.404316,322.164978 
	C55.487160,321.841217 57.029320,322.341827 58.132389,322.903687 
	C75.776047,331.891510 81.374382,348.578430 72.524971,367.429749 
	C68.146820,362.367676 64.055435,357.474304 59.777386,352.749908 
	C57.068054,349.757935 52.903778,350.232147 52.369190,353.581329 
	C52.129585,355.082428 53.039013,357.134430 54.076099,358.407806 
	C58.386738,363.700653 63.131477,368.647247 67.310188,374.036255 
	C68.764198,375.911407 69.315338,378.646027 69.778900,381.083191 
	C70.208344,383.341003 69.202042,386.120270 70.160149,387.985718 
	C74.130714,395.716339 72.196426,402.623505 69.192101,410.178558 
	C66.215157,417.664795 68.582634,425.269684 72.872276,432.910675 
	C67.460800,435.788666 62.106972,438.635376 56.753845,441.483368 
	C55.431652,442.186768 54.129250,442.929901 52.787045,443.592529 
	C50.105427,444.916412 48.725758,447.294586 50.537060,449.588379 
	C51.503197,450.811768 54.877888,451.376251 56.448807,450.661957 
	C62.951763,447.705078 69.128532,444.038971 75.553856,440.896576 
	C76.895592,440.240326 79.224953,440.024017 80.350822,440.756012 
	C89.229156,446.528351 98.582779,447.562408 109.223396,443.894989 
	C109.128723,446.043518 109.100037,447.746460 108.970688,449.441681 
	C108.495369,455.670929 110.497749,460.804718 115.209763,465.041168 
	C116.540611,466.237732 117.501762,468.246613 117.867538,470.039032 
	C118.897903,475.088013 119.480423,480.226685 120.339592,485.313080 
	C120.819458,488.153992 122.106773,491.043823 125.411758,489.776520 
	C126.904129,489.204315 128.239731,486.024506 128.186920,484.067200 
	C128.067551,479.642334 127.040688,475.241943 126.322975,470.429443 
	C152.169113,473.629669 170.437119,464.203827 179.866791,439.349701 
	C181.168427,460.220703 176.984406,479.080994 160.225266,492.827393 
	C148.422821,502.508209 134.504242,506.574677 119.120186,504.044281 
	C112.257126,502.915436 106.501457,499.676147 102.651985,493.762970 
	C93.937843,480.377197 81.862595,473.190247 65.754776,472.462189 
	C61.198380,472.256256 56.712570,470.488403 51.835258,469.288574 
z"/>
<path fill="#29835F" opacity="1.000000" stroke="none" 
	d="
M407.804871,119.003723 
	C391.845581,114.034729 376.785370,117.086197 361.857880,121.914040 
	C354.870300,124.173958 354.039215,123.641083 353.577820,116.197731 
	C352.700348,102.042557 364.516571,92.475075 379.533905,95.181358 
	C386.720581,96.476471 387.645294,95.721291 387.818268,88.415939 
	C388.087219,77.056152 395.604431,67.515511 405.474396,66.007187 
	C417.134857,64.225250 427.706970,70.935089 431.332611,82.422523 
	C431.532928,83.057243 431.712585,83.698936 431.885498,84.341774 
	C433.578033,90.633713 435.529205,90.907745 440.926849,87.555519 
	C445.136658,84.941017 450.171814,82.440262 454.959412,82.192581 
	C471.258850,81.349312 481.590607,98.151772 474.325714,112.796638 
	C470.515015,120.478340 470.864105,121.270966 478.882538,123.143166 
	C488.809631,125.461014 496.286560,133.955139 496.764984,143.458496 
	C497.226227,152.619080 490.706085,161.963837 481.467590,165.356827 
	C480.374634,165.758240 479.223083,166.006775 478.145142,166.441330 
	C473.944824,168.134521 473.387543,170.339890 475.999512,174.168106 
	C477.491730,176.355118 479.125488,178.528854 480.140747,180.942001 
	C482.969299,187.665085 483.103180,194.405563 478.137390,200.225266 
	C473.040924,206.198135 466.186340,207.840179 458.650757,206.469055 
	C456.237427,206.029922 453.840179,205.056351 451.650085,203.915543 
	C443.245422,199.537674 443.277924,199.475281 439.259064,207.730545 
	C434.553406,217.396561 423.764832,222.060455 413.642761,218.674179 
	C406.253540,216.202118 401.845337,210.965408 399.813446,203.491058 
	C398.969116,200.385101 399.877258,198.643738 402.639496,196.999222 
	C407.921936,193.854340 413.560883,190.912323 417.924744,186.714417 
	C424.296295,180.585175 429.673828,173.422607 436.190582,165.871429 
	C438.133423,166.970306 441.359131,168.877762 444.663147,170.638306 
	C447.503906,172.151978 450.918427,175.064774 453.267120,170.765533 
	C455.600769,166.493713 451.203979,165.176376 448.529846,163.485672 
	C445.576050,161.618164 442.561676,159.810455 439.428009,158.273697 
	C436.386993,156.782379 434.030151,154.461624 435.414673,151.345627 
	C436.170776,149.643906 439.417053,148.752853 441.712250,148.107773 
	C444.410645,147.349319 447.467346,147.703079 450.040741,146.717896 
	C451.851868,146.024521 453.115784,143.901581 454.624023,142.416946 
	C452.894257,141.252960 451.169373,139.122498 449.433807,139.113800 
	C444.976593,139.091476 440.524384,140.136780 436.049072,140.481796 
	C434.576630,140.595291 433.039551,139.870148 431.532013,139.528458 
	C431.924805,137.886932 431.899109,135.956985 432.792572,134.660477 
	C435.054352,131.378204 437.723267,128.375778 440.239960,125.270073 
	C442.125641,122.943077 443.935608,120.343323 440.804626,117.957542 
	C437.733612,115.617500 435.630493,117.996429 433.770966,120.320663 
	C431.794006,122.791588 429.717133,125.184341 427.789703,127.692558 
	C426.072235,129.927536 424.715973,129.671341 422.452789,128.045792 
	C417.906281,124.780205 412.965149,122.064079 407.804871,119.003723 
z"/>
<path fill="#EE9C26" opacity="1.000000" stroke="none" 
	d="
M75.667213,125.130417 
	C99.080475,129.968063 119.399193,140.864761 137.914444,154.570328 
	C157.289383,168.912292 175.395844,184.968155 194.043045,200.291565 
	C194.667587,200.804794 195.143021,201.499481 195.833405,202.272430 
	C194.553711,204.831558 193.316010,207.306732 192.048584,209.841309 
	C182.482712,205.001709 173.378540,199.823532 163.816803,195.708618 
	C152.829880,190.980362 141.441360,187.184006 130.219391,183.004059 
	C127.274666,181.907242 124.327148,181.720383 123.338272,185.418549 
	C122.408798,188.894547 125.234703,190.026810 127.877609,190.805649 
	C147.135803,196.481018 165.334564,204.570969 182.859650,214.334900 
	C187.949936,217.170914 191.351196,220.116135 187.884750,227.233215 
	C181.668808,226.535812 174.803452,225.889175 167.973404,224.977951 
	C137.682327,220.936661 107.884224,214.826492 79.565620,202.927612 
	C65.666763,197.087585 52.464386,190.021667 42.113914,178.669769 
	C34.226376,170.019104 30.528883,160.104599 33.520046,148.347702 
	C37.802017,131.517197 51.276482,122.459564 69.293182,124.290276 
	C71.281433,124.492302 73.258209,124.807320 75.667213,125.130417 
z"/>
<path fill="#FEBF5A" opacity="1.000000" stroke="none" 
	d="
M394.826416,124.673370 
	C407.533508,125.470131 416.793030,131.134430 423.018280,141.665985 
	C429.458862,152.561844 428.595795,163.396332 420.471130,173.123093 
	C412.932770,182.147919 403.068787,188.028687 392.632996,192.973984 
	C368.829041,204.254196 343.490021,210.436707 317.695343,214.912643 
	C306.078491,216.928406 294.365631,218.390518 282.839264,220.082840 
	C278.967590,212.237762 278.701263,211.721878 285.295166,207.828522 
	C297.724518,200.489639 310.503052,193.741592 323.150024,186.772675 
	C324.164154,186.213821 325.284393,185.847916 326.353546,185.388290 
	C328.903473,184.292038 330.809814,182.658524 329.462036,179.655533 
	C328.165314,176.766342 325.697540,176.621521 323.150818,177.968521 
	C309.947174,184.952133 296.743896,191.937408 283.603088,199.038025 
	C281.142670,200.367508 278.967285,202.224609 276.639435,203.852890 
	C274.177551,200.628860 271.861359,197.595657 269.502472,194.506500 
	C269.556519,194.299286 269.536499,193.892761 269.729401,193.704941 
	C295.054871,169.048187 322.538147,147.393188 355.191559,133.111862 
	C367.625092,127.673950 380.535431,123.921844 394.826416,124.673370 
z"/>
<path fill="#FDBF5A" opacity="1.000000" stroke="none" 
	d="
M228.068237,310.202942 
	C230.776215,299.479248 233.495773,289.212799 236.088608,278.914459 
	C237.364731,273.845886 240.427002,271.919098 244.295853,272.750366 
	C247.924561,287.415619 250.493164,301.876770 255.215790,315.596405 
	C259.017761,326.641510 265.384399,336.810211 270.701630,347.322998 
	C272.140106,350.167023 274.290771,352.769409 277.734192,350.465179 
	C280.950043,348.313232 279.187805,345.513031 277.590515,343.054688 
	C264.380219,322.722717 256.837433,300.429108 254.171371,276.366791 
	C253.646088,271.625916 254.133713,268.130371 260.137665,267.073151 
	C260.920563,267.937073 261.960114,269.166779 263.085022,270.312653 
	C273.688080,281.113556 284.353394,291.853821 294.904083,302.705566 
	C303.386597,311.430145 307.533966,322.491699 311.023529,333.807037 
	C313.604279,342.175537 314.500061,350.769531 312.787567,359.453949 
	C310.085663,373.155701 298.264771,383.208496 281.816528,385.948212 
	C261.037750,389.409210 245.652939,381.845154 235.984970,363.128632 
	C227.430756,346.568329 225.848267,328.874084 228.068237,310.202942 
z"/>
<path fill="#FEBF5A" opacity="1.000000" stroke="none" 
	d="
M137.558563,96.238258 
	C135.521576,81.931160 137.399353,69.468811 150.406387,61.193970 
	C160.751358,54.612682 171.683167,55.011604 181.539520,62.549980 
	C191.619339,70.259285 197.853409,80.895325 203.027222,92.154816 
	C215.740234,119.821449 221.630493,149.259949 225.176971,179.275406 
	C225.251755,179.908325 225.114365,180.566330 225.061188,181.461395 
	C222.229904,182.417221 219.439529,183.359238 216.132919,184.475540 
	C215.417664,182.527283 214.707520,180.721252 214.087814,178.884674 
	C208.947159,163.649185 201.667053,149.509918 192.424652,136.361588 
	C190.691437,133.895859 188.750229,131.449661 185.580139,133.590866 
	C182.366989,135.761169 183.949417,138.495468 185.684799,140.944778 
	C194.296539,153.099304 201.221375,166.152802 205.927887,180.286362 
	C209.456970,190.884140 210.198547,187.412064 200.548843,195.472046 
	C192.941589,186.974319 185.064987,178.655212 177.731033,169.882431 
	C162.941818,152.191727 149.875153,133.355621 141.792450,111.531235 
	C140.012985,106.726418 139.019852,101.630386 137.558563,96.238258 
z"/>
<path fill="#8AC98E" opacity="1.000000" stroke="none" 
	d="
M297.853760,416.618408 
	C302.403076,414.958099 302.007843,412.441223 300.071747,409.076385 
	C296.969421,403.684784 294.251801,398.071808 291.280151,392.377197 
	C295.623901,390.168030 298.775360,388.310394 302.138580,386.993652 
	C303.308014,386.535828 305.125305,387.141876 306.434021,387.732910 
	C312.160217,390.319000 317.726776,393.274261 323.522949,395.682373 
	C326.015778,396.718048 329.141174,396.743927 330.003448,393.186218 
	C330.831268,389.770813 328.357239,388.826385 325.573608,387.813812 
	C320.522858,385.976532 315.662720,383.615265 310.536896,381.391998 
	C315.801910,373.529938 315.813995,373.491394 323.330750,375.847626 
	C335.679382,379.718445 347.472656,384.711487 356.539246,394.365540 
	C364.323395,402.654083 362.750275,413.472900 352.824585,419.117676 
	C350.101318,420.666382 346.520569,421.083282 343.286530,421.290710 
	C331.275574,422.060883 326.279755,427.063843 326.005249,439.204803 
	C325.859619,445.645599 325.999084,452.323578 318.440765,455.025421 
	C310.074799,458.015900 302.042633,457.348999 294.960510,451.478180 
	C293.438904,450.216858 292.253387,448.546967 290.929230,447.050964 
	C284.110596,439.347260 276.527496,438.167419 267.135620,442.340057 
	C261.322784,444.922607 255.057068,447.811920 248.899643,448.044067 
	C230.491669,448.738220 220.098907,434.263733 225.571564,416.559326 
	C229.222549,404.748077 237.747772,396.690826 248.013321,390.828949 
	C250.493164,389.412872 255.261993,392.005371 259.480682,392.855774 
	C254.032852,403.124847 250.692413,412.992554 250.822327,423.729431 
	C250.842728,425.416351 251.441635,427.322052 252.403915,428.679321 
	C252.906631,429.388336 255.441986,429.712830 255.911789,429.186584 
	C257.217468,427.724091 258.669556,425.752930 258.737366,423.933289 
	C259.060364,415.261688 261.353302,407.230774 265.246918,399.532013 
	C266.913879,396.235962 268.901001,394.479156 272.951111,394.827301 
	C276.517151,395.133820 280.173981,394.383636 283.066345,394.156891 
	C286.419617,400.687897 289.356079,406.814331 292.718109,412.697601 
	C293.679993,414.380829 295.874237,415.359833 297.853760,416.618408 
z"/>
<path fill="#FDBF5A" opacity="1.000000" stroke="none" 
	d="
M131.279388,262.328125 
	C150.448944,255.197769 169.840576,250.693359 189.732285,248.231094 
	C192.670059,247.867447 195.068115,247.934494 195.823563,252.245285 
	C180.006699,263.301331 169.255859,281.069000 149.842239,288.480896 
	C132.178329,295.224792 114.391769,299.976868 95.310440,296.965515 
	C87.941902,295.802643 81.119034,293.276550 75.610390,288.043030 
	C62.952717,276.017548 62.830799,259.159790 75.492844,246.382294 
	C86.597939,235.175903 100.848045,230.455994 115.813896,226.950531 
	C125.101601,224.775070 133.583588,227.969101 142.393158,229.187653 
	C156.726822,231.170349 171.056534,233.183044 185.400177,235.090820 
	C188.211136,235.464676 190.833633,235.681702 190.212006,239.478989 
	C179.082077,241.647141 167.895645,243.377274 156.952545,246.089325 
	C146.808395,248.603363 136.908051,252.115829 126.935989,255.300278 
	C124.076752,256.213348 120.645790,257.328461 122.002876,261.359283 
	C123.385857,265.467072 126.639206,264.076416 129.516510,263.020050 
	C129.984741,262.848145 130.448059,262.662842 131.279388,262.328125 
z"/>
<path fill="#AD2C36" opacity="1.000000" stroke="none" 
	d="
M234.109985,265.105347 
	C213.360138,263.918274 197.568634,247.860916 197.044098,227.875320 
	C196.538940,208.628052 211.586594,191.006943 230.244949,188.996445 
	C251.383392,186.718704 269.534607,199.503036 273.590424,219.525726 
	C278.438965,243.462021 260.095398,264.897461 234.109985,265.105347 
z"/>
<path fill="#5BA8A1" opacity="1.000000" stroke="none" 
	d="
M125.060890,461.221375 
	C117.686760,457.642548 116.291573,454.793365 117.371033,447.168854 
	C117.998810,442.734711 118.819511,438.206573 118.530815,433.787567 
	C117.779335,422.284973 111.919189,413.750000 101.919754,408.100739 
	C97.427666,405.562866 92.713463,403.406006 88.297058,400.748810 
	C79.372482,395.379120 76.110466,387.445251 78.660019,377.280334 
	C79.953827,372.122009 81.785355,367.101044 83.259956,361.985138 
	C87.411865,347.580719 84.293457,335.007568 73.597572,324.415649 
	C72.777130,323.603149 71.761650,322.987610 70.836823,322.280518 
	C71.022331,321.793976 71.207840,321.307434 71.393349,320.820892 
	C74.945923,321.411224 78.553528,321.777100 82.041199,322.632141 
	C94.834000,325.768555 106.221977,331.854218 116.988724,339.325317 
	C119.932640,341.368103 120.280983,343.124847 118.852295,346.298584 
	C113.608986,357.946106 110.126282,370.063751 110.654030,383.012909 
	C111.865578,412.740143 141.045441,434.396851 169.867096,427.008423 
	C170.983551,426.722229 172.105392,426.457031 174.446320,425.881958 
	C172.081146,436.841217 168.984894,446.716736 160.942429,453.940491 
	C150.715424,463.126373 138.535187,464.932861 125.060890,461.221375 
z"/>
<path fill="#F28BA6" opacity="1.000000" stroke="none" 
	d="
M63.197014,35.438484 
	C69.730881,25.206774 79.347435,21.802097 90.430870,22.456726 
	C101.422035,23.105907 107.719124,30.290434 111.338715,39.960205 
	C117.109253,55.376278 114.762833,70.412071 108.369980,85.065140 
	C107.948479,86.031281 106.124771,86.997635 105.000710,86.945297 
	C98.048401,86.621574 92.341591,89.205956 87.484749,93.890930 
	C70.400749,83.659248 58.093479,60.101295 60.897121,42.907425 
	C61.292912,40.480171 62.305767,38.153538 63.197014,35.438484 
z"/>
<path fill="#E6718A" opacity="1.000000" stroke="none" 
	d="
M155.381607,156.575668 
	C140.602097,147.011932 125.822601,137.448181 110.851830,127.760674 
	C117.409950,124.652725 122.866295,119.462944 124.030037,111.073982 
	C125.213753,102.541023 121.809288,95.831833 115.106743,90.436264 
	C119.946136,79.551231 122.880096,68.357025 122.681068,56.527435 
	C122.527878,47.422024 126.847328,40.895218 135.497498,37.575459 
	C145.572647,33.708820 154.140610,38.470760 156.381638,49.182526 
	C126.382927,60.899830 125.812675,84.222153 131.522064,105.752731 
	C136.319061,123.842621 145.705002,139.733932 155.929291,155.642319 
	C155.670349,156.306305 155.525970,156.440979 155.381607,156.575668 
z"/>
<path fill="#E8718B" opacity="1.000000" stroke="none" 
	d="
M32.331837,90.768570 
	C36.455173,80.324692 47.633278,74.039215 58.200935,76.079224 
	C59.466652,76.323563 60.722996,77.439301 61.655823,78.452881 
	C68.152733,85.512177 74.597473,92.620651 80.960785,99.800346 
	C81.824898,100.775337 82.542961,102.203407 82.642418,103.475349 
	C83.032768,108.467194 83.148346,113.480530 83.340958,117.910385 
	C76.280579,117.456207 68.065781,116.926498 59.850769,116.399956 
	C56.734516,116.200218 53.492054,116.493942 50.523464,115.726196 
	C38.839310,112.704391 31.457409,102.580986 32.331837,90.768570 
z"/>
<path fill="#FBBD59" opacity="1.000000" stroke="none" 
	d="
M109.467445,434.107361 
	C99.186813,440.163879 88.650871,438.797211 81.593315,430.795502 
	C75.123863,423.460571 74.516937,413.222137 80.183266,405.559723 
	C86.530884,409.018433 93.046272,412.242310 99.221107,416.022430 
	C105.747208,420.017609 110.108261,425.623932 109.467445,434.107361 
z"/>
<path fill="#FBBD59" opacity="1.000000" stroke="none" 
	d="
M99.883636,120.450844 
	C92.917427,117.548920 89.475571,112.442543 90.263474,106.589722 
	C91.072212,100.582108 95.809387,95.907669 101.828476,95.177849 
	C107.482521,94.492302 113.140396,97.970383 115.285835,103.450531 
	C119.030380,113.015373 111.339706,121.786026 99.883636,120.450844 
z"/>
<path fill="#E6718A" opacity="1.000000" stroke="none" 
	d="
M156.032166,155.970551 
	C156.434250,156.303223 156.618896,156.836960 156.803543,157.370682 
	C156.442642,157.253876 156.081757,157.137070 155.551239,156.797958 
	C155.525970,156.440979 155.670349,156.306305 156.032166,155.970551 
z"/>
</svg>